<svg version="1.1" id="Layer_1" xmlns="http://www.w3.org/2000/svg" xmlns:xlink="http://www.w3.org/1999/xlink" x="0px" y="0px"
	 width="100%" viewBox="0 0 1280 854" enable-background="new 0 0 1280 854" xml:space="preserve">
<path fill="#ED2024" opacity="1.000000" stroke="none" 
	d="
M1.000000,285.000000 
	C1.000000,190.354828 1.000000,95.709663 1.000000,1.032247 
	C427.548248,1.032247 854.096497,1.032247 1281.000000,1.032247 
	C1281.000000,95.359901 1281.000000,189.720245 1280.558838,284.701965 
	C1277.952759,285.349030 1275.787720,285.397217 1273.622681,285.397247 
	C1101.694214,285.400726 929.765686,285.400909 757.837158,285.397797 
	C753.839355,285.397736 749.841492,285.357697 745.923828,284.958435 
	C750.421143,275.126373 754.838379,265.672180 759.435303,256.065063 
	C759.577332,255.506546 759.539551,255.100952 759.501770,254.695343 
	C759.173645,254.989487 758.845520,255.283630 758.244324,255.759583 
	C748.742676,265.757477 739.514038,275.573547 729.786987,285.385101 
	C717.877075,285.377899 706.465576,285.375214 695.027100,284.930481 
	C697.923401,265.155457 700.846741,245.822510 703.770020,226.489563 
	C702.523682,227.750748 701.738831,229.179459 701.029053,230.644501 
	C692.195251,248.877640 683.372498,267.116089 674.026489,285.360107 
	C666.283447,285.370544 659.060669,285.374054 651.654663,285.010315 
	C648.173401,262.717804 644.875488,240.792526 641.577576,218.867233 
	C641.162170,218.905106 640.746704,218.942978 640.331299,218.980850 
	C639.217102,226.521286 638.141663,234.067673 636.980530,241.600845 
	C634.730469,256.199371 632.432068,270.790466 629.667236,285.379242 
	C621.942505,285.367157 614.704346,285.360413 607.267090,285.080933 
	C597.666809,265.343719 588.265686,245.879196 578.864624,226.414688 
	C578.643433,229.469955 579.068481,232.252426 579.481567,235.036652 
	C581.971130,251.814987 584.458130,268.593750 586.480835,285.374878 
	C574.591736,285.381042 563.167786,285.384613 551.471008,285.191650 
	C541.972412,275.172729 532.746521,265.350403 523.384888,255.346725 
	C522.996338,255.004440 522.743652,254.843491 522.490906,254.682541 
	C522.574463,255.196869 522.657959,255.711197 522.813721,256.582336 
	C527.308350,266.403656 531.730835,275.868134 535.678223,285.360474 
	C358.781525,285.392365 182.359863,285.397522 5.938215,285.383911 
	C4.292134,285.383789 2.646072,285.133484 1.000000,285.000000 
z"/>
<path fill="#278E43" opacity="1.000000" stroke="none" 
	d="
M1281.000000,570.000000 
	C1281.000000,664.354248 1281.000000,758.708435 1280.549072,853.531372 
	C853.732117,854.000000 427.366058,854.000000 1.000000,854.000000 
	C1.000000,759.645752 1.000000,665.291565 1.464382,570.442444 
	C168.566711,569.944824 335.204681,569.941772 501.842621,569.943726 
	C503.174469,569.943726 504.506317,570.011658 505.750854,570.367554 
	C503.035004,574.582336 500.406464,578.477478 497.777924,582.372620 
	C498.096741,582.586670 498.415558,582.800720 498.734375,583.014771 
	C504.459656,578.608154 510.184937,574.201538 516.382935,569.853271 
	C532.544495,569.937073 548.233459,569.962402 563.923035,570.369263 
	C559.054565,586.358948 554.185425,601.967041 549.316284,617.575134 
	C549.665649,617.795349 550.015015,618.015564 550.364380,618.235779 
	C561.461243,602.089111 572.558105,585.942383 584.145630,569.859375 
	C592.740845,569.930969 600.845398,569.938904 609.031250,570.412842 
	C609.112488,593.143677 609.112488,615.408508 609.112488,637.673401 
	C610.615723,635.572998 611.327515,633.400818 612.004639,631.217896 
	C618.345764,610.777527 624.680969,590.335205 631.484497,569.917236 
	C638.293884,569.925232 644.636658,569.909485 651.188232,570.205566 
	C658.294739,592.974609 665.192383,615.431763 672.090027,637.888977 
	C672.973083,635.922424 672.971252,634.138184 672.973328,632.353943 
	C672.997864,611.551514 673.022949,590.749084 673.513184,569.945557 
	C682.098083,569.895447 690.217529,569.846436 698.588013,570.014160 
	C701.467773,574.061462 704.090393,577.896118 706.726379,581.721619 
	C715.094177,593.865234 723.466858,606.005493 731.867310,618.401184 
	C732.168152,618.835632 732.439392,619.015930 732.710571,619.196289 
	C732.611450,618.671997 732.512268,618.147705 732.365845,617.242188 
	C727.571838,601.237244 722.825134,585.613464 718.541382,569.970337 
	C734.722412,569.898865 750.440369,569.846741 766.463745,569.940308 
	C772.299866,574.419617 777.830566,578.753235 783.361267,583.086914 
	C783.611572,582.847778 783.861877,582.608704 784.112183,582.369629 
	C781.465454,578.263916 778.818787,574.158203 776.623596,570.012024 
	C918.887695,569.960754 1060.700317,569.946594 1202.512939,569.942017 
	C1228.675293,569.941162 1254.837646,569.979675 1281.000000,570.000000 
z"/>
<path fill="#FFFFFE" opacity="1.000000" stroke="none" 
	d="
M505.838196,570.047852 
	C504.506317,570.011658 503.174469,569.943726 501.842621,569.943726 
	C335.204681,569.941772 168.566711,569.944824 1.464382,569.973755 
	C1.000000,475.309998 1.000000,380.620026 1.000000,285.465027 
	C2.646072,285.133484 4.292134,285.383789 5.938215,285.383911 
	C182.359863,285.397522 358.781525,285.392365 535.878418,285.608398 
	C546.786316,306.706970 557.019043,327.585449 567.251831,348.463898 
	C566.910828,348.681396 566.569885,348.898865 566.228943,349.116333 
	C536.503357,331.852417 506.777802,314.588470 477.052216,297.324554 
	C476.831329,297.701508 476.610443,298.078491 476.389587,298.455475 
	C489.110168,312.056427 501.873291,325.617950 514.538208,339.270538 
	C525.158752,350.719238 535.664734,362.274200 546.082214,373.921295 
	C545.942993,374.060486 545.665039,374.339417 545.264160,374.337708 
	C514.793640,367.407166 484.728790,360.457367 454.647278,353.580200 
	C451.463531,352.852386 448.182129,352.551758 445.001953,351.796204 
	C444.672638,351.493591 444.287415,351.447784 443.902161,351.401947 
	C444.283844,351.586121 444.665497,351.770294 445.139648,352.287811 
	C475.162567,369.824615 505.093018,387.028076 536.348389,404.993134 
	C500.237518,407.606445 465.689636,410.106659 431.141754,412.606842 
	C431.158905,412.975433 431.176025,413.343994 431.193146,413.712585 
	C464.816528,421.287964 498.439880,428.863373 532.063293,436.438782 
	C532.064453,436.840881 532.065613,437.243011 532.066772,437.645142 
	C499.978210,450.133820 467.889648,462.622498 435.801117,475.111176 
	C435.880890,475.503082 435.960693,475.895020 436.040466,476.286926 
	C470.481445,473.605347 504.922424,470.923798 539.363403,468.242249 
	C539.488525,468.544067 539.613586,468.845917 539.738708,469.147766 
	C512.796570,490.518280 485.854370,511.888794 458.912201,533.259338 
	C460.894043,533.741272 462.302185,533.352966 463.652374,532.818298 
	C492.562256,521.371826 521.457092,509.887054 550.390076,498.499451 
	C552.249329,497.767670 554.393860,497.761108 556.393677,497.381409 
	C556.381714,497.345642 556.458862,497.342957 556.176147,497.533997 
	C554.560608,499.620117 553.214539,501.506042 551.897034,503.411652 
	C536.541565,525.622009 521.190491,547.835327 505.838196,570.047852 
z"/>
<path fill="#FFFFFE" opacity="1.000000" stroke="none" 
	d="
M1281.000000,569.534912 
	C1254.837646,569.979675 1228.675293,569.941162 1202.512939,569.942017 
	C1060.700317,569.946594 918.887695,569.960754 776.381470,569.765137 
	C766.092773,555.639404 756.532410,541.695862 746.890991,527.808655 
	C739.814636,517.616028 732.631897,507.497375 725.531128,497.338135 
	C725.565796,497.330505 725.510559,497.375946 725.857178,497.113800 
	C727.947205,497.329834 729.752747,497.650482 731.424622,498.310211 
	C751.696960,506.309601 771.931763,514.404114 792.214722,522.376282 
	C802.410767,526.383789 812.684998,530.192383 823.005981,534.327393 
	C823.524719,534.535522 823.961304,534.507202 824.397888,534.478821 
	C824.002625,534.233398 823.607300,533.987976 823.062683,533.443237 
	C796.004578,511.767578 769.095764,490.391266 742.187012,469.014954 
	C742.349976,468.742706 742.512878,468.470459 742.675842,468.198242 
	C777.122131,470.871063 811.568481,473.543915 846.014771,476.216736 
	C846.071899,475.829132 846.129028,475.441528 846.186157,475.053925 
	C814.119751,462.571777 782.053345,450.089630 749.986877,437.607483 
	C750.043640,437.220215 750.100342,436.832977 750.157104,436.445740 
	C783.802185,428.864319 817.447205,421.282898 851.092285,413.701477 
	C851.056702,413.318756 851.021057,412.936035 850.985474,412.553314 
	C816.498962,410.053101 782.012451,407.552887 747.525940,405.052673 
	C748.891479,403.208527 750.277832,402.332794 751.698914,401.517761 
	C778.694580,386.035614 805.699341,370.569153 832.680237,355.061218 
	C834.195862,354.190033 835.521729,352.988617 837.170166,351.980316 
	C837.679871,351.890778 837.955200,351.761841 838.230591,351.632904 
	C838.123779,351.521393 837.938721,351.302002 837.921692,351.314362 
	C837.610901,351.539642 837.320312,351.792786 836.618164,351.922180 
	C833.280579,352.405457 830.337158,352.949524 827.421875,353.616486 
	C797.092896,360.554749 766.768433,367.512848 736.266479,374.281128 
	C735.970459,373.975983 735.850830,373.855133 735.853149,373.422424 
	C748.873413,359.279846 761.796936,345.472473 774.661987,331.610931 
	C784.921936,320.556122 795.110779,309.435272 805.556519,298.193787 
	C805.777710,297.808044 805.773499,297.572357 805.769226,297.336609 
	C805.457031,297.499420 805.144836,297.662231 804.481567,297.872925 
	C774.626770,315.014160 745.123108,332.107452 715.619446,349.200775 
	C716.923401,344.196960 718.904114,340.024872 720.942627,335.881195 
	C729.233337,319.028168 737.541748,302.183838 745.843689,285.336304 
	C749.841492,285.357697 753.839355,285.397736 757.837158,285.397797 
	C929.765686,285.400909 1101.694214,285.400726 1273.622681,285.397247 
	C1275.787720,285.397217 1277.952759,285.349030 1280.558838,285.161652 
	C1281.000000,379.689972 1281.000000,474.379974 1281.000000,569.534912 
z"/>
<path fill="#7EBB8E" opacity="1.000000" stroke="none" 
	d="
M1.000000,854.500000 
	C427.366058,854.000000 853.732117,854.000000 1280.549072,854.000000 
	C1280.833374,854.333313 1280.684082,854.943909 1280.497192,854.955566 
	C1279.169067,855.039001 1277.833374,855.000000 1276.500000,855.000000 
	C851.333313,855.000000 426.166656,855.000000 1.000000,854.500000 
z"/>
<path fill="#FEBD12" opacity="1.000000" stroke="none" 
	d="
M836.935913,351.940918 
	C835.521729,352.988617 834.195862,354.190033 832.680237,355.061218 
	C805.699341,370.569153 778.694580,386.035614 751.698914,401.517761 
	C750.277832,402.332794 748.891479,403.208527 747.525940,405.052673 
	C782.012451,407.552887 816.498962,410.053101 850.985474,412.553314 
	C851.021057,412.936035 851.056702,413.318756 851.092285,413.701477 
	C817.447205,421.282898 783.802185,428.864319 750.157104,436.445740 
	C750.100342,436.832977 750.043640,437.220215 749.986877,437.607483 
	C782.053345,450.089630 814.119751,462.571777 846.186157,475.053925 
	C846.129028,475.441528 846.071899,475.829132 846.014771,476.216736 
	C811.568481,473.543915 777.122131,470.871063 742.675842,468.198242 
	C742.512878,468.470459 742.349976,468.742706 742.187012,469.014954 
	C769.095764,490.391266 796.004578,511.767578 822.991089,533.530640 
	C823.068848,533.917480 822.923828,534.090942 822.923828,534.090942 
	C812.684998,530.192383 802.410767,526.383789 792.214722,522.376282 
	C771.931763,514.404114 751.696960,506.309601 731.424622,498.310211 
	C729.752747,497.650482 727.947205,497.329834 725.925049,496.959229 
	C725.713196,497.015045 725.780029,496.963287 725.846924,496.911499 
	C725.730103,497.056244 725.613342,497.200989 725.496521,497.345734 
	C732.631897,507.497375 739.814636,517.616028 746.890991,527.808655 
	C756.532410,541.695862 766.092773,555.639404 775.929993,569.805664 
	C778.818787,574.158203 781.465454,578.263916 784.112183,582.369629 
	C783.861877,582.608704 783.611572,582.847778 783.361267,583.086914 
	C777.830566,578.753235 772.299866,574.419617 766.277954,569.664551 
	C744.772217,552.326355 723.757629,535.409485 702.743103,518.492676 
	C702.441223,518.740906 702.139343,518.989075 701.837463,519.237305 
	C707.251099,536.154785 712.664734,553.072205 718.078369,569.989685 
	C722.825134,585.613464 727.571838,601.237244 732.221497,617.372681 
	C732.124390,617.884277 731.837585,618.147095 731.837585,618.147095 
	C723.466858,606.005493 715.094177,593.865234 706.726379,581.721619 
	C704.090393,577.896118 701.467773,574.061462 698.462280,569.689148 
	C690.002380,557.141296 681.919189,545.135315 673.047852,531.958618 
	C673.047852,545.738098 673.047852,557.842407 673.047852,569.946655 
	C673.022949,590.749084 672.997864,611.551514 672.973328,632.353943 
	C672.971252,634.138184 672.973083,635.922424 672.090027,637.888977 
	C665.192383,615.431763 658.294739,592.974609 651.186340,569.821167 
	C647.824097,558.690308 644.672607,548.255615 641.521118,537.820984 
	C641.102478,537.881226 640.683899,537.941528 640.265259,538.001831 
	C637.182800,548.632385 634.100342,559.262939 631.017883,569.893494 
	C624.680969,590.335205 618.345764,610.777527 612.004639,631.217896 
	C611.327515,633.400818 610.615723,635.572998 609.112488,637.673401 
	C609.112488,615.408508 609.112488,593.143677 609.111389,569.953369 
	C609.110291,557.199646 609.110291,545.371216 609.110291,533.542847 
	C608.751709,533.423706 608.393127,533.304565 608.034607,533.185425 
	C599.908081,545.388855 591.781555,557.592285 583.655029,569.795715 
	C572.558105,585.942383 561.461243,602.089111 550.364380,618.235779 
	C550.015015,618.015564 549.665649,617.795349 549.316284,617.575134 
	C554.185425,601.967041 559.054565,586.358948 564.097046,570.044067 
	C569.554932,552.595520 574.839417,535.853638 580.123962,519.111755 
	C572.634399,523.887146 565.951355,529.233459 559.299561,534.618286 
	C544.828003,546.333374 530.372375,558.068176 515.910217,569.794922 
	C510.184937,574.201538 504.459656,578.608154 498.734375,583.014771 
	C498.415558,582.800720 498.096741,582.586670 497.777924,582.372620 
	C500.406464,578.477478 503.035004,574.582336 505.750854,570.367554 
	C521.190491,547.835327 536.541565,525.622009 551.897034,503.411652 
	C553.214539,501.506042 554.560608,499.620117 556.109009,497.539856 
	C556.324524,497.354706 556.405701,497.417175 556.405701,497.417175 
	C554.393860,497.761108 552.249329,497.767670 550.390076,498.499451 
	C521.457092,509.887054 492.562256,521.371826 463.652374,532.818298 
	C462.302185,533.352966 460.894043,533.741272 458.912201,533.259338 
	C485.854370,511.888794 512.796570,490.518280 539.738708,469.147766 
	C539.613586,468.845917 539.488525,468.544067 539.363403,468.242249 
	C504.922424,470.923798 470.481445,473.605347 436.040466,476.286926 
	C435.960693,475.895020 435.880890,475.503082 435.801117,475.111176 
	C467.889648,462.622498 499.978210,450.133820 532.066772,437.645142 
	C532.065613,437.243011 532.064453,436.840881 532.063293,436.438782 
	C498.439880,428.863373 464.816528,421.287964 431.193146,413.712585 
	C431.176025,413.343994 431.158905,412.975433 431.141754,412.606842 
	C465.689636,410.106659 500.237518,407.606445 536.348389,404.993134 
	C505.093018,387.028076 475.162567,369.824615 445.114807,352.312897 
	C444.997467,352.004639 444.946014,352.052979 444.946014,352.052979 
	C448.182129,352.551758 451.463531,352.852386 454.647278,353.580200 
	C484.728790,360.457367 514.793640,367.407166 545.441956,374.508728 
	C546.306274,374.600800 546.591980,374.520172 546.877686,374.439514 
	C546.658936,374.220398 546.440186,374.001251 546.221436,373.782104 
	C535.664734,362.274200 525.158752,350.719238 514.538208,339.270538 
	C501.873291,325.617950 489.110168,312.056427 476.389587,298.455475 
	C476.610443,298.078491 476.831329,297.701508 477.052216,297.324554 
	C506.777802,314.588470 536.503357,331.852417 566.228943,349.116333 
	C566.569885,348.898865 566.910828,348.681396 567.251831,348.463898 
	C557.019043,327.585449 546.786316,306.706970 536.353394,285.580566 
	C531.730835,275.868134 527.308350,266.403656 523.010681,256.410400 
	C523.263855,255.763763 523.392273,255.645905 523.520691,255.528046 
	C532.746521,265.350403 541.972412,275.172729 551.671875,285.457764 
	C565.804077,300.917847 579.462585,315.915283 593.121094,330.912720 
	C593.516479,330.655884 593.911926,330.399017 594.307312,330.142181 
	C591.853516,315.218903 589.399719,300.295624 586.945923,285.372345 
	C584.458130,268.593750 581.971130,251.814987 579.481567,235.036652 
	C579.068481,232.252426 578.643433,229.469955 578.864624,226.414688 
	C588.265686,245.879196 597.666809,265.343719 607.403503,285.430603 
	C613.217834,297.816345 618.696533,309.579712 624.175232,321.343048 
	C624.598083,321.283539 625.020996,321.223999 625.443848,321.164459 
	C627.013794,309.237854 628.583740,297.311218 630.153687,285.384613 
	C632.432068,270.790466 634.730469,256.199371 636.980530,241.600845 
	C638.141663,234.067673 639.217102,226.521286 640.331299,218.980850 
	C640.746704,218.942978 641.162170,218.905106 641.577576,218.867233 
	C644.875488,240.792526 648.173401,262.717804 651.638794,285.429077 
	C653.415405,297.875732 655.024597,309.536407 656.633789,321.197083 
	C657.033691,321.254211 657.433594,321.311340 657.833496,321.368469 
	C663.404602,309.363373 668.975708,297.358276 674.546875,285.353149 
	C683.372498,267.116089 692.195251,248.877640 701.029053,230.644501 
	C701.738831,229.179459 702.523682,227.750748 703.770020,226.489563 
	C700.846741,245.822510 697.923401,265.155457 694.917175,285.289154 
	C692.473694,300.841766 690.113159,315.593658 687.752625,330.345520 
	C694.015442,325.211334 699.127075,319.766571 704.155090,314.245605 
	C712.892456,304.651733 721.578125,295.010803 730.285461,285.389618 
	C739.514038,275.573547 748.742676,265.757477 758.427917,255.920731 
	C758.884583,255.900070 759.255554,256.217987 759.255615,256.217987 
	C754.838379,265.672180 750.421143,275.126373 745.923828,284.958435 
	C737.541748,302.183838 729.233337,319.028168 720.942627,335.881195 
	C718.904114,340.024872 716.923401,344.196960 715.619446,349.200775 
	C745.123108,332.107452 774.626770,315.014160 804.606323,298.002563 
	C805.082153,298.084259 805.331238,298.343811 805.331177,298.343811 
	C795.110779,309.435272 784.921936,320.556122 774.661987,331.610931 
	C761.796936,345.472473 748.873413,359.279846 735.625854,373.556549 
	C735.665222,374.156830 736.054016,374.311127 736.442749,374.465424 
	C766.768433,367.512848 797.092896,360.554749 827.421875,353.616486 
	C830.337158,352.949524 833.280579,352.405457 836.596252,351.896973 
	C836.981567,351.989655 836.935913,351.940918 836.935913,351.940918 
z"/>
<path fill="#FFFAF7" opacity="1.000000" stroke="none" 
	d="
M729.786987,285.385101 
	C721.578125,295.010803 712.892456,304.651733 704.155090,314.245605 
	C699.127075,319.766571 694.015442,325.211334 687.752625,330.345520 
	C690.113159,315.593658 692.473694,300.841766 694.944153,285.731201 
	C706.465576,285.375214 717.877075,285.377899 729.786987,285.385101 
z"/>
<path fill="#FFFAF7" opacity="1.000000" stroke="none" 
	d="
M586.480835,285.374878 
	C589.399719,300.295624 591.853516,315.218903 594.307312,330.142181 
	C593.911926,330.399017 593.516479,330.655884 593.121094,330.912720 
	C579.462585,315.915283 565.804077,300.917847 551.944702,285.654297 
	C563.167786,285.384613 574.591736,285.381042 586.480835,285.374878 
z"/>
<path fill="#FFF9F5" opacity="1.000000" stroke="none" 
	d="
M674.026489,285.360107 
	C668.975708,297.358276 663.404602,309.363373 657.833496,321.368469 
	C657.433594,321.311340 657.033691,321.254211 656.633789,321.197083 
	C655.024597,309.536407 653.415405,297.875732 651.822083,285.796326 
	C659.060669,285.374054 666.283447,285.370544 674.026489,285.360107 
z"/>
<path fill="#FFF9F5" opacity="1.000000" stroke="none" 
	d="
M629.667175,285.379242 
	C628.583740,297.311218 627.013794,309.237854 625.443848,321.164459 
	C625.020996,321.223999 624.598083,321.283539 624.175232,321.343048 
	C618.696533,309.579712 613.217834,297.816345 607.602661,285.703339 
	C614.704346,285.360413 621.942505,285.367157 629.667175,285.379242 
z"/>
<path fill="#FEBD12" opacity="1.000000" stroke="none" 
	d="
M522.938477,256.053589 
	C522.657959,255.711197 522.574463,255.196869 522.490906,254.682541 
	C522.743652,254.843491 522.996338,255.004440 523.384888,255.346725 
	C523.392273,255.645905 523.263855,255.763763 522.938477,256.053589 
z"/>
<path fill="#FEBD12" opacity="1.000000" stroke="none" 
	d="
M758.700989,255.738922 
	C758.845520,255.283630 759.173645,254.989487 759.501770,254.695343 
	C759.539551,255.100952 759.577332,255.506546 759.435303,256.065063 
	C759.255554,256.217987 758.884583,255.900070 758.700989,255.738922 
z"/>
<path fill="#FEFEFB" opacity="1.000000" stroke="none" 
	d="
M718.541382,569.970337 
	C712.664734,553.072205 707.251099,536.154785 701.837463,519.237305 
	C702.139343,518.989075 702.441223,518.740906 702.743103,518.492676 
	C723.757629,535.409485 744.772217,552.326355 765.972534,569.518921 
	C750.440369,569.846741 734.722412,569.898865 718.541382,569.970337 
z"/>
<path fill="#FEFEFB" opacity="1.000000" stroke="none" 
	d="
M516.382935,569.853271 
	C530.372375,558.068176 544.828003,546.333374 559.299561,534.618286 
	C565.951355,529.233459 572.634399,523.887146 580.123962,519.111755 
	C574.839417,535.853638 569.554932,552.595520 564.096375,569.662598 
	C548.233459,569.962402 532.544495,569.937073 516.382935,569.853271 
z"/>
<path fill="#FEFEFC" opacity="1.000000" stroke="none" 
	d="
M673.513184,569.945557 
	C673.047852,557.842407 673.047852,545.738098 673.047852,531.958618 
	C681.919189,545.135315 690.002380,557.141296 698.211304,569.472351 
	C690.217529,569.846436 682.098083,569.895447 673.513184,569.945557 
z"/>
<path fill="#FEFEFB" opacity="1.000000" stroke="none" 
	d="
M584.145630,569.859375 
	C591.781555,557.592285 599.908081,545.388855 608.034607,533.185425 
	C608.393127,533.304565 608.751709,533.423706 609.110291,533.542847 
	C609.110291,545.371216 609.110291,557.199646 609.030151,569.487427 
	C600.845398,569.938904 592.740845,569.930969 584.145630,569.859375 
z"/>
<path fill="#FEFDF8" opacity="1.000000" stroke="none" 
	d="
M631.484497,569.917236 
	C634.100342,559.262939 637.182800,548.632385 640.265259,538.001831 
	C640.683899,537.941528 641.102478,537.881226 641.521118,537.820984 
	C644.672607,548.255615 647.824097,558.690308 650.977539,569.509277 
	C644.636658,569.909485 638.293884,569.925232 631.484497,569.917236 
z"/>
<path fill="#FEBD12" opacity="1.000000" stroke="none" 
	d="
M732.268738,617.753845 
	C732.512268,618.147705 732.611450,618.671997 732.710571,619.196289 
	C732.439392,619.015930 732.168152,618.835632 731.867310,618.401184 
	C731.837585,618.147095 732.124390,617.884277 732.268738,617.753845 
z"/>
<path fill="#FEBD12" opacity="1.000000" stroke="none" 
	d="
M445.022339,351.979553 
	C444.665497,351.770294 444.283844,351.586121 443.902161,351.401947 
	C444.287415,351.447784 444.672638,351.493591 445.001953,351.796204 
	C444.946014,352.052979 444.997467,352.004639 445.022339,351.979553 
z"/>
<path fill="#FEBD12" opacity="1.000000" stroke="none" 
	d="
M823.140442,533.830017 
	C823.607300,533.987976 824.002625,534.233398 824.397888,534.478821 
	C823.961304,534.507202 823.524719,534.535522 823.005981,534.327393 
	C822.923828,534.090942 823.068848,533.917480 823.140442,533.830017 
z"/>
<path fill="#FEBD12" opacity="1.000000" stroke="none" 
	d="
M837.003479,352.014832 
	C837.320312,351.792786 837.610901,351.539642 837.921692,351.314362 
	C837.938721,351.302002 838.123779,351.521393 838.230591,351.632904 
	C837.955200,351.761841 837.679871,351.890778 837.170166,351.980316 
	C836.935913,351.940918 836.981567,351.989655 837.003479,352.014832 
z"/>
<path fill="#FEBD12" opacity="1.000000" stroke="none" 
	d="
M804.957397,297.954651 
	C805.144836,297.662231 805.457031,297.499420 805.769226,297.336609 
	C805.773499,297.572357 805.777710,297.808044 805.556580,298.193787 
	C805.331238,298.343811 805.082153,298.084259 804.957397,297.954651 
z"/>
<path fill="#FFFFFE" opacity="1.000000" stroke="none" 
	d="
M725.531128,497.338135 
	C725.613342,497.200989 725.730103,497.056244 725.846924,496.911499 
	C725.780029,496.963287 725.713196,497.015045 725.578491,497.221375 
	C725.510559,497.375946 725.565796,497.330505 725.531128,497.338135 
z"/>
<path fill="#FFFFFE" opacity="1.000000" stroke="none" 
	d="
M556.393677,497.381409 
	C556.405701,497.417175 556.324524,497.354706 556.391724,497.348816 
	C556.458862,497.342957 556.381714,497.345642 556.393677,497.381409 
z"/>
<path fill="#FFFFFE" opacity="1.000000" stroke="none" 
	d="
M736.266479,374.281128 
	C736.054016,374.311127 735.665222,374.156830 735.503845,373.868408 
	C735.850830,373.855133 735.970459,373.975983 736.266479,374.281128 
z"/>
<path fill="#FFFFFE" opacity="1.000000" stroke="none" 
	d="
M546.082214,373.921295 
	C546.440186,374.001251 546.658936,374.220398 546.877686,374.439514 
	C546.591980,374.520172 546.306274,374.600800 545.842773,374.510437 
	C545.665039,374.339417 545.942993,374.060486 546.082214,373.921295 
z"/>
</svg>